<?xml version="1.0" encoding="UTF-8" standalone="no"?>
<!-- Created with Inkscape (http://www.inkscape.org/) -->

<svg
   xmlns:dc="http://purl.org/dc/elements/1.1/"
   xmlns:cc="http://creativecommons.org/ns#"
   xmlns:rdf="http://www.w3.org/1999/02/22-rdf-syntax-ns#"
   xmlns:svg="http://www.w3.org/2000/svg"
   xmlns="http://www.w3.org/2000/svg"
   xmlns:sodipodi="http://sodipodi.sourceforge.net/DTD/sodipodi-0.dtd"
   xmlns:inkscape="http://www.inkscape.org/namespaces/inkscape"
   width="145.89908mm"
   height="145.89859mm"
   viewBox="0 0 145.89908 145.89859"
   version="1.1"
   id="svg8"
   inkscape:version="0.92.3 (2405546, 2018-03-11)"
   sodipodi:docname="paraguay_flag.svg">
  <defs
     id="defs2">














</defs>
  <sodipodi:namedview
     id="base"
     pagecolor="#ffffff"
     bordercolor="#666666"
     borderopacity="1.0"
     inkscape:pageopacity="0.0"
     inkscape:pageshadow="2"
     inkscape:zoom="0.98994949"
     inkscape:cx="322.61367"
     inkscape:cy="248.80647"
     inkscape:document-units="mm"
     inkscape:current-layer="layer1"
     showgrid="false"
     inkscape:snap-global="false"
     inkscape:window-width="866"
     inkscape:window-height="641"
     inkscape:window-x="809"
     inkscape:window-y="180"
     inkscape:window-maximized="0"
     fit-margin-top="0"
     fit-margin-left="0"
     fit-margin-right="0"
     fit-margin-bottom="0" />
  <metadata
     id="metadata5">
    <rdf:RDF>
      <cc:Work
         rdf:about="">
        <dc:format>image/svg+xml</dc:format>
        <dc:type
           rdf:resource="http://purl.org/dc/dcmitype/StillImage" />
        <dc:title></dc:title>
      </cc:Work>
    </rdf:RDF>
  </metadata>
  <g
     inkscape:label="Layer 1"
     inkscape:groupmode="layer"
     id="layer1"
     transform="translate(-32.354655,-39.100196)">
    <path
       style="fill:#f1f1f1;fill-opacity:1;stroke:none;stroke-width:4.53399992;stroke-miterlimit:4;stroke-dasharray:none;stroke-opacity:1"
       d="M 32.354655,89.799945 V 136.44619 H 178.25374 V 89.799945 Z"
       id="rect4674"
       inkscape:connector-curvature="0" />
    <path
       style="fill:#2656b5;fill-opacity:1;stroke:none;stroke-width:0.26458332;stroke-opacity:1"
       d="m 32.354655,136.44619 v 25.0331 c 0,13.02993 10.490068,23.5195 23.520003,23.5195 h 98.859072 c 13.02994,0 23.52001,-10.48957 23.52001,-23.5195 v -25.0331 z"
       id="rect912"
       inkscape:connector-curvature="0" />
    <path
       style="fill:#1f7c20;fill-opacity:1;stroke:none;stroke-width:0.26458332px;stroke-linecap:butt;stroke-linejoin:miter;stroke-opacity:1"
       d="m 105.54195,121.9201 c -2.91619,-0.623 -7.66745,-1.94287 -8.99516,-6.92555 -1.21907,-4.57496 1.18895,-7.41507 2.71433,-8.60851 1.75407,-1.5079 3.54539,-2.19824 5.14493,-2.40641 l -1.80407,-0.50113 c 0.25304,-0.39586 0.23264,-0.2997 0.96886,-0.50112 -1.0756,-0.26171 -1.41745,0.20765 -2.17157,0.70157 0.11585,-0.53698 0.57229,-1.10683 0.80181,-1.33634 -0.95361,0.27823 -1.4164,0.96608 -2.17156,1.5702 -0.14487,-0.53469 -0.0788,-1.21276 0.23386,-1.60361 -0.91188,0.63951 -2.40543,1.86531 -2.40543,3.107 l -0.10023,-1.9711 c -1.4297,1.44017 -1.10028,2.31418 -1.60361,4.07585 -0.55245,-0.75556 -0.93458,-1.38343 -1.16931,-2.20497 -0.0193,2.25428 -0.18563,2.92488 0.40091,4.9779 -0.79501,-0.67187 -1.31452,-0.61014 -1.57021,-1.30294 0.22994,1.0959 -0.15382,3.30003 0.60806,4.17608 -0.3355,0.42064 -1.18277,0.16034 -1.77065,0 0.78819,0.72792 1.62981,2.11107 2.47224,2.6727 -0.25267,0.21711 -1.13389,0.71775 -1.5702,0.43431 0.77144,0.59932 2.15349,1.01761 2.83973,1.70385 -0.26106,0.46484 -0.98843,0.95436 -1.67043,0.73497 1.11454,0.40497 1.97647,0.72098 2.93996,1.20272 -0.41384,0.30355 -0.76898,0.61108 -1.20271,0.735 1.3939,0.61143 2.39438,0.26497 3.40098,0.66817 -0.54674,0.37348 -1.46697,0.35008 -1.99782,0.46773 1.20434,0.48567 2.04546,0.15273 3.26734,-10e-6 -1.0528,0.70822 -0.61488,0.6101 -1.31924,0.95123 0.3705,-0.0346 2.85612,-0.57264 3.52422,-1.01804 0.48303,0.21038 0.86358,0.46436 1.26953,0.73499 -0.51418,0.69696 -2.36371,1.01889 -2.83974,0.0668 0.46488,1.83273 2.88765,2.20939 3.74177,0.50115 1.39726,1.23184 3.24986,1.67331 4.34313,0.0334 -0.91463,0.0249 -3.44209,0.53221 -3.842,-0.4009 0.29837,-0.27557 0.63622,-0.46845 0.96885,-0.63477 0.38286,0.19182 3.32549,0.81468 3.70837,-0.26727 -0.48447,-0.24223 -0.5568,-0.0988 -1.10249,-0.16704 0.22972,-0.25356 0.46369,-0.51279 0.66818,-0.7684 0.6934,-0.67179 3.89921,0.0622 4.27631,-1.06908 0.20467,-0.614 -1.59788,-1.23495 -1.97112,-0.7684 0.60444,-0.57562 2.34218,-1.58959 2.63929,-2.07133 0.73613,-1.47226 0.32217,-2.20294 -0.90203,-1.5034 0.42831,-0.93373 3.96134,-4.28491 0.70158,-3.37427 0.10817,-0.27787 0.0672,-0.669 0.20045,-0.93545 1.20994,-1.42601 -0.40735,-4.70736 -0.80181,-2.27179 -0.10175,-1.18768 0.19137,-2.72426 -0.33408,-3.77518 -0.64954,-1.29907 -1.39151,-0.27426 -1.26953,0.70158 -0.64686,-1.67929 -1.97578,-3.2489 -2.50566,-1.57021 -1.31457,-0.54648 -1.70489,-1.73528 -2.15179,-1.55468 0.22536,0.86803 -0.36585,0.84056 -0.75476,1.25401 0.8235,0.61502 2.07265,0.72272 2.67269,0.66817 -0.99533,0.31115 0.36104,1.60362 1.83748,1.60362 -2.68455,0.10366 1.14252,2.10433 1.50339,2.37201 -2.99524,-1.05104 0.43452,2.57273 0.83522,2.6727 -1.77104,-1.0557 -1.07413,2.32851 -0.63477,3.20723 -1.40414,-1.18213 -1.06264,3.16839 -1.77066,3.4411 -0.58838,-2.85664 -1.56113,1.43993 -2.53906,1.77066 0.20974,-0.36368 0.18907,-0.76915 0.0334,-1.23612 -0.22048,-0.66145 -0.99744,0.38214 -1.20271,0.66818 -0.89317,1.24459 -2.13342,2.78805 -2.57247,2.87314 z"
       id="path4630"
       inkscape:connector-curvature="0"
       sodipodi:nodetypes="csccccccccccccccccccccccccccccccccccccscccccccccccccccccccscc" />
    <circle
       style="fill:#2656b5;fill-opacity:1;stroke:none;stroke-width:0.26458332;stroke-opacity:1"
       id="path4632"
       cx="104.79712"
       cy="112.80699"
       r="6.7090774" />
    <path
       sodipodi:type="star"
       style="fill:#efd24c;fill-opacity:1;stroke:none;stroke-width:0.26458332;stroke-opacity:1"
       id="path4636"
       sodipodi:sides="5"
       sodipodi:cx="104.79712"
       sodipodi:cy="112.85539"
       sodipodi:r1="6.0483575"
       sodipodi:r2="2.3037319"
       sodipodi:arg1="-1.5707963"
       sodipodi:arg2="-0.94247777"
       inkscape:flatsided="false"
       inkscape:rounded="0"
       inkscape:randomized="0"
       d="m 104.79712,106.80703 1.3541,4.1846 4.39823,-0.005 -3.56135,2.58093 1.36415,4.18134 -3.55513,-2.5895 -3.55514,2.5895 1.36416,-4.18134 -3.561351,-2.58093 4.398231,0.005 z"
       inkscape:transform-center-x="2.6892857e-006"
       inkscape:transform-center-y="-0.5775687" />
    <circle
       style="fill:none;fill-opacity:1;stroke:#e3473b;stroke-width:4.53399992;stroke-miterlimit:4;stroke-dasharray:none;stroke-opacity:1"
       id="path4638"
       cx="104.79712"
       cy="112.80699"
       r="15.579854" />
    <path
       style="fill:#e3473b;fill-opacity:1;stroke:none;stroke-width:0.26458332;stroke-opacity:1"
       d="m 55.874658,39.100196 c -13.029935,0 -23.520003,10.48957 -23.520003,23.519495 V 89.799945 H 178.25374 V 62.619691 c 0,-13.029925 -10.49007,-23.519495 -23.52001,-23.519495 z"
       id="rect912-3"
       inkscape:connector-curvature="0" />
  </g>
</svg>
